<svg width="28" height="28" viewBox="0 0 28 28" fill="none" xmlns="http://www.w3.org/2000/svg">
<path fill-rule="evenodd" clip-rule="evenodd" d="M26.2117 20.8515C26.1351 20.9878 26.108 21.1468 26.139 21.3L27.1739 26.4241C27.264 26.8703 26.8703 27.264 26.4241 27.1739L21.3 26.139C21.1468 26.108 20.9878 26.1351 20.8515 26.2117C18.8262 27.3505 16.4889 28 14 28C6.26799 28 0 21.732 0 14C0 6.26799 6.26799 0 14 0C21.732 0 28 6.26799 28 14C28 16.4889 27.3505 18.8262 26.2117 20.8515ZM14 19.7273C17.1631 19.7273 19.7273 17.1631 19.7273 14C19.7273 10.8369 17.1631 8.27273 14 8.27273C10.8369 8.27273 8.27273 10.8369 8.27273 14C8.27273 17.1631 10.8369 19.7273 14 19.7273Z" fill="#2365FF"/>
</svg>
